<svg width="97" height="96" viewBox="0 0 97 96" fill="none" xmlns="http://www.w3.org/2000/svg">
<path d="M78.6739 28.2666L16.3218 64.2656L18.3218 67.7297L80.6739 31.7307L78.6739 28.2666Z" fill="#B0BCB2"/>
<path d="M18.322 28.2722L16.322 31.7363L78.6741 67.7353L80.6741 64.2712L18.322 28.2722Z" fill="#B0BCB2"/>
<path d="M50.5 12H46.5V84H50.5V12Z" fill="#B0BCB2"/>
<path d="M48.5 18C51.8137 18 54.5 15.3137 54.5 12C54.5 8.68629 51.8137 6 48.5 6C45.1863 6 42.5 8.68629 42.5 12C42.5 15.3137 45.1863 18 48.5 18Z" fill="#69857D"/>
<path d="M16.5 36C19.8137 36 22.5 33.3137 22.5 30C22.5 26.6863 19.8137 24 16.5 24C13.1863 24 10.5 26.6863 10.5 30C10.5 33.3137 13.1863 36 16.5 36Z" fill="#69857D"/>
<path d="M16.5 72C19.8137 72 22.5 69.3137 22.5 66C22.5 62.6863 19.8137 60 16.5 60C13.1863 60 10.5 62.6863 10.5 66C10.5 69.3137 13.1863 72 16.5 72Z" fill="#69857D"/>
<path d="M80.5 36C83.8137 36 86.5 33.3137 86.5 30C86.5 26.6863 83.8137 24 80.5 24C77.1863 24 74.5 26.6863 74.5 30C74.5 33.3137 77.1863 36 80.5 36Z" fill="#69857D"/>
<path d="M80.5 72C83.8137 72 86.5 69.3137 86.5 66C86.5 62.6863 83.8137 60 80.5 60C77.1863 60 74.5 62.6863 74.5 66C74.5 69.3137 77.1863 72 80.5 72Z" fill="#69857D"/>
<path d="M48.5 90C51.8137 90 54.5 87.3137 54.5 84C54.5 80.6863 51.8137 78 48.5 78C45.1863 78 42.5 80.6863 42.5 84C42.5 87.3137 45.1863 90 48.5 90Z" fill="#69857D"/>
<path d="M48.5 58C54.0229 58 58.5 53.5229 58.5 48C58.5 42.4772 54.0229 38 48.5 38C42.9772 38 38.5 42.4772 38.5 48C38.5 53.5229 42.9772 58 48.5 58Z" fill="#3E5C58"/>
</svg>
