<svg width="96" height="96" viewBox="0 0 96 96" fill="none" xmlns="http://www.w3.org/2000/svg">
<path d="M71.9661 64.8965L64.894 71.9685L80.6341 87.7085C81.024 88.0985 81.658 88.0985 82.048 87.7085L87.7041 82.0525C88.0941 81.6625 88.0941 81.0285 87.7041 80.6385L71.9661 64.8965Z" fill="#69857D"/>
<path d="M63.2019 56.1309L56.1299 63.2029L64.8959 71.9669L71.9659 64.8969L63.2019 56.1309Z" fill="#3E5C58"/>
<path d="M40 72C57.6731 72 72 57.6731 72 40C72 22.3269 57.6731 8 40 8C22.3269 8 8 22.3269 8 40C8 57.6731 22.3269 72 40 72Z" fill="#B0BCB2"/>
<path d="M40 58C49.9411 58 58 49.9411 58 40C58 30.0589 49.9411 22 40 22C30.0589 22 22 30.0589 22 40C22 49.9411 30.0589 58 40 58Z" fill="#69857D"/>
<path d="M40 48C44.4183 48 48 44.4183 48 40C48 35.5817 44.4183 32 40 32C35.5817 32 32 35.5817 32 40C32 44.4183 35.5817 48 40 48Z" fill="#3E5C58"/>
<path d="M35 38C36.6569 38 38 36.6569 38 35C38 33.3431 36.6569 32 35 32C33.3431 32 32 33.3431 32 35C32 36.6569 33.3431 38 35 38Z" fill="white"/>
</svg>
