<svg width="97" height="96" viewBox="0 0 97 96" fill="none" xmlns="http://www.w3.org/2000/svg">
<path d="M79.5 68C82.2614 68 84.5 65.7614 84.5 63C84.5 60.2386 82.2614 58 79.5 58C76.7386 58 74.5 60.2386 74.5 63C74.5 65.7614 76.7386 68 79.5 68Z" fill="#3E5C58"/>
<path d="M52.922 83.3668L81.86 67.3868L77.58 58.3828L52.5 70.0008L52.922 83.3668Z" fill="#3E5C58"/>
<path d="M90.5 65C90.5 62.238 88.262 60 85.5 60C84.82 60 84.172 60.138 83.582 60.384L83.58 60.382L83.558 60.392C83.554 60.394 83.55 60.396 83.546 60.398L58.5 72L55.5 70C58.262 70 60.5 67.762 60.5 65C60.5 63.14 59.472 61.536 57.966 60.674L57.974 60.642L30.672 46.91H30.622C29.362 46.338 27.974 46 26.5 46C25.064 46 23.706 46.314 22.47 46.86H22.426L6.5 54V80L22.68 72.564L54.502 85.58H54.504C55.118 85.848 55.79 86 56.5 86C57.37 86 58.176 85.758 58.89 85.366L58.924 85.364L87.862 69.386L87.86 69.382C89.424 68.538 90.5 66.904 90.5 65Z" fill="#B0BCB2"/>
<path d="M55.5 68C57.1569 68 58.5 66.6569 58.5 65C58.5 63.3431 57.1569 62 55.5 62C53.8431 62 52.5 63.3431 52.5 65C52.5 66.6569 53.8431 68 55.5 68Z" fill="#69857D"/>
<path d="M58.5 72.0005L55.522 70.0045C53.012 69.8845 51.038 69.0685 34.5 62.9785V70.0005L57.602 79.4685C57.602 79.4685 55.966 74.9025 58.5 72.0005Z" fill="#69857D"/>
<path d="M84.5 26C84.5 38.15 74.65 48 62.5 48C50.35 48 40.5 38.15 40.5 26C40.5 13.85 50.35 4 62.5 4C74.65 4 84.5 13.85 84.5 26Z" fill="#B0BCB2"/>
<path d="M81.2001 26C81.2001 23.288 80.7621 20.7 79.9941 18.3H83.0861C82.8041 17.546 82.4861 16.812 82.1261 16.1H79.1761C76.0901 8.934 69.7841 4 62.5001 4C55.2161 4 48.9101 8.934 45.8221 16.1H42.8721C42.5121 16.812 42.1941 17.546 41.9121 18.3H45.0041C44.2381 20.7 43.8001 23.288 43.8001 26C43.8001 28.712 44.2381 31.3 45.0061 33.7H41.9141C42.1961 34.454 42.5141 35.188 42.8741 35.9H45.8241C48.9101 43.066 55.2181 48 62.5021 48C69.7861 48 76.0921 43.066 79.1801 35.9H82.1301C82.4901 35.188 82.8081 34.454 83.0901 33.7H79.9981C80.7621 31.3 81.2001 28.712 81.2001 26ZM79.0001 26C79.0001 28.73 78.5361 31.332 77.7001 33.7H70.7601C71.1161 31.208 71.3001 28.586 71.3001 26C71.3001 23.414 71.1181 20.792 70.7601 18.3H77.7001C78.5361 20.668 79.0001 23.27 79.0001 26ZM62.5001 45.8C60.3701 45.8 58.0761 42.01 56.8321 35.9H68.1661C66.9241 42.01 64.6301 45.8 62.5001 45.8ZM56.4501 33.7C56.1041 31.376 55.9001 28.792 55.9001 26C55.9001 23.208 56.1041 20.624 56.4501 18.3H68.5501C68.8961 20.624 69.1001 23.208 69.1001 26C69.1001 28.792 68.8961 31.376 68.5501 33.7H56.4501ZM62.5001 6.2C64.6301 6.2 66.9241 9.99 68.1681 16.1H56.8341C58.0761 9.99 60.3701 6.2 62.5001 6.2ZM76.7661 16.1H70.3941C69.6921 12.436 68.5861 9.2 67.1001 7C71.2141 8.436 74.6601 11.742 76.7661 16.1ZM57.8981 7C56.4121 9.202 55.3081 12.438 54.6041 16.1H48.2321C50.3401 11.742 53.7861 8.436 57.8981 7ZM46.0001 26C46.0001 23.27 46.4641 20.668 47.3001 18.3H54.2401C53.8821 20.792 53.7001 23.414 53.7001 26C53.7001 28.586 53.8821 31.208 54.2381 33.7H47.3001C46.4641 31.332 46.0001 28.73 46.0001 26ZM48.2321 35.9H54.6041C55.3061 39.564 56.4121 42.8 57.8981 45C53.7861 43.564 50.3401 40.258 48.2321 35.9ZM67.1021 45C68.5881 42.798 69.6921 39.562 70.3961 35.9H76.7681C74.6601 40.258 71.2141 43.564 67.1021 45Z" fill="#69857D"/>
</svg>
