<svg width="16" height="14" viewBox="0 0 16 14" fill="none" xmlns="http://www.w3.org/2000/svg">
<path d="M9.03516 0.743652C8.91078 0.743683 8.78923 0.780822 8.68607 0.850319C8.58291 0.919816 8.50284 1.01851 8.45608 1.13377C8.40933 1.24904 8.39803 1.37563 8.42363 1.49735C8.44923 1.61907 8.51056 1.73039 8.59978 1.81706L13.3662 6.5835H1.12501C1.04219 6.58233 0.959959 6.59763 0.883104 6.62851C0.806249 6.65939 0.736298 6.70524 0.677317 6.7634C0.618336 6.82155 0.571501 6.89085 0.539533 6.96726C0.507566 7.04367 0.491104 7.12567 0.491104 7.2085C0.491104 7.29133 0.507566 7.37333 0.539533 7.44974C0.571501 7.52615 0.618336 7.59544 0.677317 7.6536C0.736298 7.71175 0.806249 7.7576 0.883104 7.78848C0.959959 7.81937 1.04219 7.83467 1.12501 7.8335H13.3662L8.59978 12.5999C8.53979 12.6575 8.49191 12.7265 8.45892 12.8028C8.42593 12.8792 8.4085 12.9613 8.40765 13.0445C8.40681 13.1276 8.42256 13.2101 8.45399 13.2871C8.48542 13.3641 8.5319 13.434 8.5907 13.4928C8.6495 13.5516 8.71944 13.5981 8.79642 13.6295C8.87341 13.6609 8.95589 13.6767 9.03904 13.6758C9.12219 13.675 9.20433 13.6576 9.28066 13.6246C9.35699 13.5916 9.42597 13.5437 9.48357 13.4837L15.3169 7.65039C15.4341 7.53318 15.4999 7.37423 15.4999 7.2085C15.4999 7.04277 15.4341 6.88382 15.3169 6.7666L9.48357 0.933268C9.42531 0.873274 9.3556 0.82558 9.27858 0.793009C9.20156 0.760439 9.11879 0.743656 9.03516 0.743652Z" fill="#3E5C58"/>
</svg>
